<?xml version="1.0" standalone="no"?><!DOCTYPE svg PUBLIC "-//W3C//DTD SVG 1.1//EN" "http://www.w3.org/Graphics/SVG/1.1/DTD/svg11.dtd"><svg t="1647572530838" class="icon" viewBox="0 0 1024 1024" version="1.1" xmlns="http://www.w3.org/2000/svg" p-id="3126" xmlns:xlink="http://www.w3.org/1999/xlink" width="200" height="200"><defs><style type="text/css"></style></defs><path d="M823.467 110.933H200.533c-17.066 0-29.866 12.8-29.866 29.867v738.133c0 17.067 12.8 34.134 34.133 34.134h422.4c17.067 0 34.133-12.8 34.133-34.134 0-17.066-12.8-34.133-34.133-34.133H234.667V174.933H793.6V883.2c0 17.067 12.8 34.133 34.133 34.133 17.067 0 34.134-12.8 34.134-34.133V140.8c-8.534-17.067-21.334-29.867-38.4-29.867z" p-id="3127"></path><path d="M281.6 460.8c4.267 12.8 17.067 21.333 29.867 21.333H691.2c17.067 0 34.133-12.8 34.133-34.133 0-17.067-12.8-34.133-34.133-34.133H388.267l17.066-17.067c12.8-12.8 12.8-34.133 0-46.933-8.533-8.534-29.866-8.534-42.666 4.266l-72.534 72.534c-4.266 4.266-8.533 12.8-8.533 21.333v12.8zM695.467 576h-384c-17.067 0-34.134 12.8-34.134 34.133 0 17.067 12.8 34.134 34.134 34.134h307.2L601.6 661.333c-12.8 12.8-12.8 34.134 0 46.934 4.267 4.266 12.8 8.533 21.333 8.533s17.067-4.267 21.334-8.533l72.533-72.534c12.8-12.8 12.8-34.133 0-46.933C712.533 576 704 576 695.467 576z" p-id="3128"></path></svg>