<?xml version="1.0" standalone="no"?><!DOCTYPE svg PUBLIC "-//W3C//DTD SVG 1.1//EN" "http://www.w3.org/Graphics/SVG/1.1/DTD/svg11.dtd"><svg t="1647586134526" class="icon" viewBox="0 0 1024 1024" version="1.1" xmlns="http://www.w3.org/2000/svg" p-id="4283" xmlns:xlink="http://www.w3.org/1999/xlink" width="200" height="200"><defs><style type="text/css"></style></defs><path d="M395.858 550.086l-0.579 1.11c-15.772 30.763-11.618 68.947 11.583 96.933l0.086 0.102-5.728 0.345-51.188-47.45-25.633-23.687-7.456-6.841-2.255-2.04-0.64-0.565c-13.1-11.149-29.124-21.005-48.092-26.434-30.964-8.863-62.221-2.74-87.887 22.135-26.255 25.446-32.08 57.396-21.984 88.905l0.316 0.974c5.988 18.135 15.962 33.34 26.625 45.338l0.01-0.009 0.585 0.62 0.5 0.512 1.347 1.348 1.209 1.187 2.846 2.761 3.958 3.802 6.155 5.877 7.05 6.709 19.634 18.63 61.047 57.807 53.552 50.679 0.484 0.456a61.319 61.319 0 0 0 41.836 16.451h250.997l26.015 30.556c13.279 15.655 32.736 24.606 53.361 24.606h0.892c0.242 0 0.485 0 0.727-0.008 20.96-0.476 40.409-10.141 53.385-26.492l0.466-0.594 93.054-120.338 0.54-0.715c17.447-23.463 13.296-56.22-9.42-74.37l-0.167-0.131-10.077-8.292-5.04-4.138-9.841-8.058-7.17-5.853-6.99-5.69-6.81-5.526-4.44-3.594-4.361-3.522-4.282-3.45-6.275-5.04-6.097-4.88-3.967-3.162-5.803-4.61-3.77-2.985-3.693-2.914-3.615-2.842-1.779-1.394-3.498-2.736-1.72-1.341-3.382-2.63-3.305-2.558-3.228-2.488-3.15-2.418-3.074-2.347-2.998-2.277-2.92-2.206-2.845-2.137-2.768-2.066-1.356-1.007-2.654-1.962-1.299-0.954-2.54-1.858a773.233 773.233 0 0 0-2.466-1.787l-2.39-1.718a594.249 594.249 0 0 0-4.553-3.228l-2.165-1.51-2.09-1.441-2.015-1.372c-5.274-3.567-9.754-6.4-13.453-8.506a118.837 118.837 0 0 0-6.278-3.3l-1.314-0.64c-0.446-0.214-0.901-0.431-1.365-0.65l-1.416-0.664-1.468-0.674c-0.248-0.114-0.5-0.228-0.752-0.342l-1.543-0.692-1.593-0.704-1.641-0.714-1.691-0.726-0.863-0.367-1.764-0.742-1.81-0.754-1.859-0.763-2.874-1.166-1.975-0.79-2.02-0.8-2.065-0.811-2.11-0.821-2.155-0.831-2.199-0.84-2.242-0.851-2.285-0.86-3.507-1.308-2.39-0.883-2.433-0.893-2.473-0.902-2.513-0.911-3.846-1.383-3.935-1.403-4.021-1.421-5.496-1.925-4.22-1.465-4.301-1.483-4.383-1.5-2.965-1.01-6.036-2.042-4.615-1.55-4.69-1.567-5.42-1.8-7.58-2.496-7.483-2.442-7.352-2.377-5.998-1.922-4.699-1.494-5.73-1.808-6.64-2.073-6.344-1.956-4.048-1.233-3.888-1.173-4.621-1.375-2.636-0.775-2.528-0.734-3.195-0.914-2.258-0.636-2.134-0.59-1.352-0.368-1.293-0.347-1.234-0.325-1.736-0.447-1.078-0.27-1.013-0.247-0.948-0.223-0.88-0.2-0.811-0.175-0.742-0.15-0.67-0.126a30.215 30.215 0 0 0-0.307-0.053l-0.565-0.087 0.152 0.021c-33.933-4.938-73.725 16.375-90.72 47.354l-0.495 0.917z m-123.306 66.638l3.92 3.58 17.68 16.314 33.243 30.78 30.717 28.486 9.602 8.911a32 32 0 0 0 23.697 8.49l124.295-7.496c33.292-2.008 41.69-47.238 11.339-61.064l-8.39-3.837-7.031-3.243-5.134-2.387-6.838-3.208-4.445-2.108-3.59-1.717-5.013-2.424-3.595-1.762-2.408-1.193-3.15-1.58-2.898-1.479-2.287-1.186-2.363-1.25-1.192-0.642-1.445-0.791-1.286-0.72-1.132-0.652-0.752-0.444-0.877-0.535-0.567-0.358-0.283-0.184-0.235-0.161-0.224-0.164-0.253-0.193-0.314-0.243c-11.353-8.706-14.078-22.12-9.137-31.822l0.18-0.346c1.968-3.711 6.587-8.084 12.394-11.228 2.888-1.564 5.823-2.689 8.476-3.291 1.828-0.415 3.295-0.536 4.247-0.467l0.122 0.012-0.049-0.001c-0.007 0.001-0.006 0.004 0.003 0.008l0.089 0.029 1.496 0.384 1.387 0.369 2.024 0.555 2.903 0.818 2.203 0.633 3.611 1.055 3.274 0.97 3.496 1.048 5.24 1.59 3.94 1.207 4.058 1.255 4.166 1.297 4.264 1.337 4.348 1.372 4.422 1.405 4.485 1.434 6.056 1.95 6.12 1.986 4.613 1.508 3.082 1.012 5.238 1.73 3.677 1.221 4.27 1.427 5.603 1.885 4.132 1.4 5.408 1.845 3.978 1.368 3.907 1.352 3.835 1.336 4.994 1.754 2.445 0.865 3.6 1.28 3.516 1.262 3.429 1.24 3.34 1.217 2.176 0.8 2.135 0.788 3.122 1.162 3.024 1.137 1.96 0.744 2.855 1.093 1.844 0.713 1.798 0.7 2.604 1.026 2.494 0.996 2.379 0.965 2.262 0.932 1.442 0.604 1.388 0.588 1.334 0.574 1.277 0.557 1.222 0.542 1.164 0.526 1.107 0.51 0.531 0.248 1.018 0.484 0.958 0.467 0.898 0.45c0.289 0.147 0.567 0.29 0.836 0.432l0.773 0.414c0.248 0.135 0.485 0.267 0.71 0.395l0.566 0.326c1.29 0.748 2.733 1.634 4.33 2.656l1.408 0.909c0.963 0.628 1.976 1.301 3.039 2.018l1.632 1.11 0.844 0.578 1.744 1.209 1.819 1.274 0.937 0.663 1.93 1.373 2.004 1.44 2.078 1.506 2.152 1.571c0.73 0.535 1.472 1.081 2.226 1.638l2.3 1.703 2.373 1.768 1.214 0.909 2.482 1.867 2.557 1.932 2.629 1.997 2.701 2.062 2.775 2.128 2.847 2.192 2.92 2.257 2.992 2.322 3.064 2.387 4.731 3.701 4.893 3.846 3.351 2.645 5.161 4.087 5.321 4.232 3.637 2.9 5.587 4.472 5.747 4.615 5.905 4.757 4.025 3.251 8.26 6.693 4.235 3.44 6.483 5.28 6.64 5.422 9.094 7.449 7.382 6.063-87.03 112.548-0.177 0.218c-1.082 1.274-2.538 2.004-4.277 2.113l-0.098 0.004h-0.36c-1.884 0-3.473-0.73-4.592-2.05l-35.636-41.856-0.329-0.38a32 32 0 0 0-24.037-10.876H384.267L262.932 686.858l-29.954-28.473-2.422-2.34 0.308 0.35c-5.455-6.137-11.092-14.773-13.832-23.324-3.105-9.693-1.929-16.143 5.58-23.42 8.234-7.98 15.681-9.44 25.732-6.563 8.45 2.418 17.012 7.614 23.7 13.202l0.508 0.434z" p-id="4284"></path><path d="M796 163c17.496 0 31.713 14.042 32 31.47V551c0 17.673-14.327 32-32 32-17.496 0-31.713-14.042-31.996-31.47L764 551V227H260v224c0 17.496-14.042 31.713-31.47 31.996L228 483c-17.496 0-31.713-14.042-32-31.47V195c0-17.496 14.042-31.713 31.47-31.996L228 163h568z" p-id="4285"></path><path d="M376 291m32 0l208 0q32 0 32 32l0 0q0 32-32 32l-208 0q-32 0-32-32l0 0q0-32 32-32Z" p-id="4286"></path><path d="M376 397m32 0l208 0q32 0 32 32l0 0q0 32-32 32l-208 0q-32 0-32-32l0 0q0-32 32-32Z" p-id="4287"></path></svg>