<?xml version="1.0" standalone="no"?><!DOCTYPE svg PUBLIC "-//W3C//DTD SVG 1.1//EN" "http://www.w3.org/Graphics/SVG/1.1/DTD/svg11.dtd"><svg t="1646308378719" class="icon" viewBox="0 0 1024 1024" version="1.1" xmlns="http://www.w3.org/2000/svg" p-id="8753" xmlns:xlink="http://www.w3.org/1999/xlink" width="200" height="200"><defs><style type="text/css"></style></defs><path d="M866.16 223.47H586.17c-5.86 0-11.33-2.95-14.55-7.84l-45.77-69.57c-0.3-0.46-0.62-0.9-0.96-1.33-12.9-16.22-32.4-25.76-53.14-25.76l-309.03 0.18c-0.53 0-1.06 0.02-1.59 0.07-35.05 3.07-62.57 32.99-62.57 69.43v635.78c0 38.49 30.65 69.67 68.45 69.67h594.42c32.01-0.2 59.65-22.47 66.64-53.72 71-308.95 106.53-543.64 106.53-547.23 0-38.51-30.65-69.68-68.44-69.68zM167.02 366.98V206.05c0-9.62 7.8-17.42 17.42-17.42h277.85a17.4 17.4 0 0 1 14.58 7.9c7.57 11.59-0.75 26.94-14.58 26.94H289.71c-32 0.22-59.62 22.49-66.61 53.71l-21.69 93.73c-4.68 20.19-34.39 16.8-34.39-3.93z m710.04-66.06L774.21 820.36c-1.61 8.16-8.77 14.05-17.09 14.05h-560.9c-10.97 0-19.21-10.02-17.09-20.79l97.85-519.44c1.61-8.16 8.77-14.05 17.09-14.05h565.91c10.96 0.01 19.2 10.03 17.08 20.79zM378.74 431.96h303.65" p-id="8754"></path><path d="M682.39 451.96H378.74c-11.05 0-20-8.95-20-20s8.95-20 20-20h303.65c11.05 0 20 8.95 20 20s-8.95 20-20 20zM444.26 564.25h303.65M747.91 584.25H444.26c-11.05 0-20-8.95-20-20s8.95-20 20-20h303.65c11.05 0 20 8.95 20 20s-8.95 20-20 20z" p-id="8755"></path><path d="M299.81 704.3h303.65M603.46 724.3H299.81c-11.05 0-20-8.95-20-20s8.95-20 20-20h303.65c11.05 0 20 8.95 20 20s-8.95 20-20 20z" p-id="8756"></path></svg>