<?xml version="1.0" standalone="no"?><!DOCTYPE svg PUBLIC "-//W3C//DTD SVG 1.1//EN" "http://www.w3.org/Graphics/SVG/1.1/DTD/svg11.dtd"><svg t="1652189772361" class="icon" viewBox="0 0 1024 1024" version="1.1" xmlns="http://www.w3.org/2000/svg" p-id="1775" xmlns:xlink="http://www.w3.org/1999/xlink" width="200" height="200"><defs><style type="text/css">@font-face { font-family: feedback-iconfont; src: url("//at.alicdn.com/t/font_1031158_u69w8yhxdu.woff2?t=1630033759944") format("woff2"), url("//at.alicdn.com/t/font_1031158_u69w8yhxdu.woff?t=1630033759944") format("woff"), url("//at.alicdn.com/t/font_1031158_u69w8yhxdu.ttf?t=1630033759944") format("truetype"); }
</style></defs><path d="M656.203348 134.350059l190.99454 0 0 63.99516L656.203348 198.345219 656.203348 134.350059zM707.399276 261.128452l141.16853 0 0 63.99616L707.399276 325.124613 707.399276 261.128452zM755.183409 398.314221l87.095774 0 0 63.99616-87.095774 0L755.183409 398.314221zM187.298482 663.023339l193.218407 0 0 63.99616-193.218407 0L187.298482 663.023339zM189.858329 800.209107l112.694238 0 0 63.99616L189.858329 864.205268 189.858329 800.209107zM898.6738 0.00512 130.723877 0.00512C95.380997 0.00512 66.728716 28.657401 66.728716 64.00128l0 895.940244c0 35.342879 28.652281 63.99516 63.99516 63.99516l299.383037-0.32798 0-63.99516-299.383037 0.32798L130.723877 64.00128l767.950923 0 0 501.728896 63.99516 0L962.66996 64.00128C962.66796 28.657401 934.011679 0.00512 898.6738 0.00512L898.6738 0.00512z" p-id="1776"></path><path d="M687.052537 704.725716l0-74.916465c0-3.256125 0-13.029618-6.512249-22.803112-6.512249-9.773494-19.541867-9.773494-35.83273-3.256125l-3.256125 0L498.125632 760.100314c-3.256125 3.256125-16.285743 19.541867-16.285743 35.83273 0 19.541867 16.285743 35.83273 19.541867 35.83273l143.320681 162.867668c3.256125 3.256125 13.029618 13.029618 22.803112 13.029618s16.285743-6.512249 19.541867-13.029618c3.256125-6.512249 3.256125-13.029618 3.256125-22.803112l0-94.463452c42.344979 0 159.606424 6.512249 231.271884 133.552307 4.9917 11.022699 13.029618 13.029618 19.541867 13.029618l6.512249 0 4.873948-1.433514c9.773494-3.256125 11.411795-14.852229 11.411795-18.108353C960.66428 955.539468 941.122413 717.755335 687.052537 704.725716zM700.082155 844.790273c-16.285743 0-26.059236 0-26.059236 0l-16.285743 3.256125 0 110.749195-130.291063-149.83805c-3.256125-3.256125-9.773494-9.773494-9.773494-13.029618 0-3.256125 3.256125-9.773494 6.512249-13.029618l127.034938-136.808431 0 94.463452 16.285743 0c182.409535 0 237.784133 123.778813 254.069876 208.468772C846.65896 854.563766 745.683259 844.790273 700.082155 844.790273z" p-id="1777"></path><path d="M402.904546 112.216387c-128.761274 0-233.151011 104.399736-233.151011 233.16201 0 128.751275 104.389737 233.151011 233.151011 233.151011s233.151011-104.399736 233.151011-233.151011C636.056557 216.616123 531.66582 112.216387 402.904546 112.216387zM402.904546 520.235906c-96.410215 0-174.868508-78.437294-174.868508-174.857509 0-96.410215 78.458293-174.868508 174.868508-174.868508 96.432214 0 174.869508 78.459292 174.869508 174.868508C577.774054 441.798612 499.33676 520.235906 402.904546 520.235906zM432.050797 333.308122 432.050797 228.791393c0-16.107034-13.038218-29.136252-29.146251-29.136252-16.107034 0-29.146251 13.029218-29.146251 29.136252l0 116.680999c0.020999 8.021519 3.278803 15.284083 8.570486 20.533768l58.249505 58.272504c5.692658 5.691659 13.156211 8.527488 20.619763 8.527488 7.452553 0 14.916105-2.83683 20.607764-8.527488 11.374318-11.384317 11.374318-29.843209 0-41.226526L432.050797 333.308122z" p-id="1778"></path></svg>