<?xml version="1.0" standalone="no"?><!DOCTYPE svg PUBLIC "-//W3C//DTD SVG 1.1//EN" "http://www.w3.org/Graphics/SVG/1.1/DTD/svg11.dtd"><svg t="1646124724390" class="icon" viewBox="0 0 1024 1024" version="1.1" xmlns="http://www.w3.org/2000/svg" p-id="4331" xmlns:xlink="http://www.w3.org/1999/xlink" width="200" height="200"><defs><style type="text/css"></style></defs><path d="M351.584561 30.495439C442.004211-5.086316 544.29193-9.150877 637.417544 18.369123 713.049825 40.600702 782.618947 84.075789 834.357895 143.719298c27.396491 31.539649 49.762807 67.503158 65.369824 106.273684 18.335439 45.215439 27.138246 94.225965 25.959299 142.989474-1.459649 73.229474-26.722807 145.482105-69.99579 204.45193-3.604211 4.401404-3.941053 10.509474-7.702456 14.843509-48.449123 63.449825-96.98807 126.832281-145.470877 190.259649-5.030175 6.444912-9.532632 13.73193-16.864562 17.841403-3.671579 2.593684-8.353684 3.110175-11.946666 5.816141-55.747368 0.269474-111.517193 0.044912-167.27579 0.11228-51.851228-0.05614-103.702456 0.123509-155.542456-0.089824-3.615439-2.492632-8.095439-3.132632-11.744561-5.535439-4.367719-2.526316-8.117895-6.029474-11.160702-10.037894-50.582456-66.223158-101.232281-132.401404-151.803509-198.63579-3.2-3.716491-3.761404-8.735439-6.16421-12.844912-30.967018-41.94807-53.108772-90.487018-63.809123-141.552281-10.93614-52.289123-9.903158-107.025965 2.795789-158.899649 13.069474-53.535439 38.792982-103.758596 73.712281-146.312983 44.463158-54.377544 103.545263-96.34807 168.870175-121.903157m90.116492 193.751579c-2.301754 0.392982-4.524912 1.122807-6.69193 1.97614a202.699228 202.699228 0 0 0-41.734737 23.298246c-4.289123 3.132632-8.802807 6.209123-11.845614 10.655438-4.951579 6.894035-6.579649 16.033684-4.244211 24.207719 3.738947 12.934737 3.278596 27.115789-1.729122 39.657544-5.861053 15.191579-18.032281 27.81193-33.044211 34.133334-5.771228 2.61614-12.350877 3.278596-17.639298 6.938947-7.646316 4.805614-12.732632 13.237895-13.597193 22.197895-1.953684 15.30386-2.21193 30.832281-0.707369 46.181052 0.561404 5.70386 0.999298 11.621053 3.694036 16.797193 3.862456 7.949474 11.441404 13.78807 19.985964 15.898948 13.855439 3.682807 26.318596 12.384561 34.458948 24.185263 8.712982 12.395789 12.575439 28.081404 10.543158 43.115789-0.606316 5.995789-3.312281 11.677193-3.020351 17.774035 0.202105 8.37614 4.322807 16.505263 10.88 21.692632 14.910877 11.744561 31.494737 21.400702 49.122807 28.474386 10.981053 4.378947 24.218947 1.212632 32.336842-7.287018 10.026667-10.116491 23.62386-16.606316 37.827368-17.863859 16.437895-1.62807 33.437193 3.761404 45.877895 14.641403 3.188772 2.795789 6.05193 6.040702 9.768421 8.174035 7.769825 4.715789 17.729123 5.647719 26.18386 2.290527 16.067368-6.444912 31.225263-15.090526 45.103158-25.420351 3.873684-2.807018 7.68-5.883509 10.217544-10.004211 4.603509-6.961404 5.737544-15.921404 3.323508-23.882105-4.42386-15.539649-2.357895-32.785965 5.670176-46.809825 8.016842-14.360702 22.074386-25.105965 37.995789-29.215438 12.294737-2.986667 21.81614-14.293333 22.624562-26.924912 2.189474-17.717895 2.133333-35.727719-0.336842-53.400702-1.145263-8.129123-5.894737-15.629474-12.710176-20.18807-6.152982-4.468772-14.08-4.917895-20.682105-8.454737-21.928421-10.18386-36.311579-34.312982-34.773334-58.453334-0.033684-9.498947 5.344561-18.548772 2.784562-28.092631-1.729123-9.004912-8.533333-15.741754-15.898947-20.592281a202.397193 202.397193 0 0 0-42.464562-23.792281c-8.488421-3.615439-18.627368-2.964211-26.58807 1.706667-5.153684 2.874386-8.746667 7.73614-13.529825 11.127018-14.517895 10.992281-34.077193 14.933333-51.716491 10.374737-11.070877-2.672281-21.187368-8.66807-29.159298-16.752281-6.770526-6.792982-16.842105-10.026667-26.284912-8.364912z" p-id="4332"></path><path d="M500.210526 337.751579c15.685614-2.447719 32.123509 0.067368 46.293334 7.264561 15.696842 7.882105 28.552982 21.299649 35.682807 37.378246 7.174737 15.921404 8.567018 34.346667 4.008421 51.211228-4.120702 15.382456-13.237895 29.361404-25.577544 39.421754-13.552281 11.183158-31.06807 17.448421-48.651228 17.347369-17.807719 0.067368-35.514386-6.422456-49.122807-17.908772-14.675088-12.21614-24.567018-30.068772-26.913684-49.044211-2.402807-18.245614 2.065965-37.288421 12.395789-52.524912 11.710877-17.605614 30.967018-29.956491 51.884912-33.145263zM339.525614 846.113684c3.89614-0.898246 7.927018-0.628772 11.890526-0.651228 109.316491 0.033684 218.621754-0.033684 327.927018 0.033684 9.510175-0.168421 18.470175 6.871579 20.637193 16.123509 1.381053 6.512281 0.864561 13.821754-3.042807 19.413333-4.053333 6.130526-11.407719 9.667368-18.694737 9.364211-110.798596-0.011228-221.597193-0.022456-332.407018 0-7.320702 0.314386-14.708772-3.211228-18.762105-9.352982-3.772632-5.344561-4.367719-12.283509-3.244912-18.56 1.515789-7.870877 7.915789-14.484211 15.696842-16.370527zM339.54807 916.839298c4.277895-0.954386 8.690526-0.595088 13.03579-0.628772 108.519298 0 217.049825 0.011228 325.580351-0.011228 7.320702-0.325614 14.708772 3.222456 18.773333 9.375439 3.952281 5.658947 4.446316 13.058246 2.986667 19.637895-2.245614 9.128421-11.127018 16.044912-20.558597 15.887719-111.191579 0.067368-222.383158-0.011228-333.574737 0.033684-7.309474 0.303158-14.66386-3.222456-18.717193-9.352982-3.772632-5.344561-4.367719-12.283509-3.244912-18.56 1.527018-7.882105 7.927018-14.506667 15.719298-16.381755zM323.817544 996.154386c1.605614-8.499649 8.937544-15.573333 17.515789-16.752281 4.457544-0.561404 8.96-0.303158 13.44-0.314386h314.408421c4.48 0.022456 8.982456-0.247018 13.451228 0.314386 8.600702 1.156491 15.966316 8.26386 17.549474 16.785965 1.111579 6.265263 0.482807 13.181754-3.278596 18.515088-3.592982 5.41193-9.790877 8.746667-16.213334 9.296842H343.500351c-6.534737-0.471579-12.822456-3.862456-16.437895-9.364211-3.738947-5.322105-4.356491-12.227368-3.244912-18.481403z" p-id="4333"></path></svg>