<?xml version="1.0" standalone="no"?><!DOCTYPE svg PUBLIC "-//W3C//DTD SVG 1.1//EN" "http://www.w3.org/Graphics/SVG/1.1/DTD/svg11.dtd"><svg t="1650077257679" class="icon" viewBox="0 0 1024 1024" version="1.1" xmlns="http://www.w3.org/2000/svg" p-id="4865" xmlns:xlink="http://www.w3.org/1999/xlink" width="200" height="200"><defs><style type="text/css">@font-face { font-family: feedback-iconfont; src: url("//at.alicdn.com/t/font_1031158_u69w8yhxdu.woff2?t=1630033759944") format("woff2"), url("//at.alicdn.com/t/font_1031158_u69w8yhxdu.woff?t=1630033759944") format("woff"), url("//at.alicdn.com/t/font_1031158_u69w8yhxdu.ttf?t=1630033759944") format("truetype"); }
</style></defs><path d="M580.1 401.7H440.7c-38.6 0-69.8-31.3-69.8-69.8V192.4c0-38.6 31.3-69.8 69.8-69.8h139.4c38.6 0 69.8 31.3 69.8 69.8v139.4c0 38.6-31.2 69.9-69.8 69.9zM580.1 901.4H440.7c-38.6 0-69.8-31.3-69.8-69.8V692.2c0-38.6 31.3-69.8 69.8-69.8h139.4c38.6 0 69.8 31.3 69.8 69.8v139.4c0 38.5-31.2 69.8-69.8 69.8zM273.8 901.4H134.4c-38.6 0-69.8-31.3-69.8-69.8V692.2c0-38.6 31.3-69.8 69.8-69.8h139.4c38.6 0 69.8 31.3 69.8 69.8v139.4c0.1 38.5-31.2 69.8-69.8 69.8zM889.6 901.4H750.2c-38.6 0-69.8-31.3-69.8-69.8V692.2c0-38.6 31.3-69.8 69.8-69.8h139.4c38.6 0 69.8 31.3 69.8 69.8v139.4c0 38.5-31.3 69.8-69.8 69.8z" fill="#666666" p-id="4866"></path><path d="M510.4 734.3c-38.6 0-69.8-31.3-69.8-69.8V288.1c0-38.6 31.3-69.8 69.8-69.8s69.8 31.3 69.8 69.8v376.3c0 38.6-31.2 69.9-69.8 69.9zM818.2 761.3c-38.6 0-69.8-31.3-69.8-69.8V525.6c0-38.6 31.3-69.8 69.8-69.8 38.6 0 69.8 31.3 69.8 69.8v165.9c0.1 38.6-31.2 69.8-69.8 69.8zM204 761.3c-38.6 0-69.8-31.3-69.8-69.8V525.6c0-38.6 31.3-69.8 69.8-69.8s69.8 31.3 69.8 69.8v165.9c0 38.6-31.2 69.8-69.8 69.8z" fill="#666666" p-id="4867"></path><path d="M815 582.7H205.8c-38.6 0-69.8-31.3-69.8-69.8s31.3-69.8 69.8-69.8H815c38.6 0 69.8 31.3 69.8 69.8s-31.3 69.8-69.8 69.8z" fill="#666666" p-id="4868"></path></svg>