<?xml version="1.0" standalone="no"?><!DOCTYPE svg PUBLIC "-//W3C//DTD SVG 1.1//EN" "http://www.w3.org/Graphics/SVG/1.1/DTD/svg11.dtd"><svg t="1650089655481" class="icon" viewBox="0 0 1024 1024" version="1.1" xmlns="http://www.w3.org/2000/svg" p-id="14196" xmlns:xlink="http://www.w3.org/1999/xlink" width="200" height="200"><defs><style type="text/css">@font-face { font-family: feedback-iconfont; src: url("//at.alicdn.com/t/font_1031158_u69w8yhxdu.woff2?t=1630033759944") format("woff2"), url("//at.alicdn.com/t/font_1031158_u69w8yhxdu.woff?t=1630033759944") format("woff"), url("//at.alicdn.com/t/font_1031158_u69w8yhxdu.ttf?t=1630033759944") format("truetype"); }
</style></defs><path d="M681.246147 457.017758l111.488187 0 0 111.48921-111.488187 0 0-111.48921Z" p-id="14197"></path><path d="M235.292376 234.040361l111.488187 0 0 111.488187-111.488187 0 0-111.488187Z" p-id="14198"></path><path d="M402.524145 234.040361l111.488187 0 0 111.488187-111.488187 0 0-111.488187Z" p-id="14199"></path><path d="M235.292376 457.017758l111.488187 0 0 111.48921-111.488187 0 0-111.48921Z" p-id="14200"></path><path d="M402.524145 457.017758l111.488187 0 0 111.48921-111.488187 0 0-111.48921Z" p-id="14201"></path><path d="M235.292376 679.995155l111.488187 0 0 111.488187-111.488187 0 0-111.488187Z" p-id="14202"></path><path d="M402.524145 679.995155l111.488187 0 0 111.488187-111.488187 0 0-111.488187Z" p-id="14203"></path><path d="M681.246147 679.995155l111.488187 0 0 111.488187-111.488187 0 0-111.488187Z" p-id="14204"></path><path d="M930.081469 901.393591l-25.858948 0L904.222521 373.454574c0-22.373567-8.763594-43.386136-24.551162-59.118446-15.787568-15.787568-36.800138-24.496927-59.065234-24.496927L625.501542 289.839201 625.501542 150.4782c0-22.373567-8.763594-43.386136-24.551162-59.119469-15.786545-15.786545-36.800138-24.495904-59.065234-24.495904L207.419562 66.862827c-22.26612 0-43.278689 8.710382-59.065234 24.442692-15.841803 15.732309-24.552186 36.744879-24.552186 59.173704l0 750.915391-29.885658 0c-15.406898 0-27.871791 12.466939-27.871791 27.871791s12.465916 27.871791 27.871791 27.871791l836.164984 0c15.405875 0 27.871791-12.466939 27.871791-27.871791S945.487344 901.393591 930.081469 901.393591zM820.607148 345.582783c7.402597 0 14.426571 2.885723 19.761066 8.220219 5.226025 5.226025 8.111748 12.193717 8.111748 19.651572l0 527.939017L625.501542 901.393591 625.501542 345.582783 820.607148 345.582783zM179.547771 150.4782c0-7.457856 2.8847-14.426571 8.110725-19.706831 5.335519-5.28026 12.30321-8.16496 19.762089-8.16496L541.885146 122.606409c7.40362 0 14.426571 2.8847 19.762089 8.220219 5.225001 5.225001 8.110725 12.193717 8.110725 19.651572l0 139.361001 0 611.555413L179.547771 901.394614 179.547771 150.4782z" p-id="14205"></path></svg>